<svg width="1449" height="1459" viewBox="0 0 1449 1459" fill="none" xmlns="http://www.w3.org/2000/svg">
<rect x="2.5" y="2.5" width="1444" height="1454" rx="722" stroke="#FD9500" stroke-width="5"/>
<g clip-path="url(#clip0_22_2)">
<path d="M1216.11 827.074C1220.46 827.378 1224.9 827.268 1229.17 828.044C1250.25 831.883 1261.36 844.953 1261.29 866.255C1261.27 870.912 1262.78 872.908 1266.87 874.849C1280.6 881.377 1287.24 892.561 1287.89 907.821C1288.65 925.617 1285.16 942.18 1275.09 956.996C1268.44 966.781 1259.24 973.073 1247.19 974.03C1239.05 974.681 1241.19 981.57 1239.65 985.894C1237.98 990.578 1242.78 989.816 1245.29 990.62C1260.8 995.61 1270.24 1009.07 1271.25 1025.28C1273.31 1058.24 1246.45 1097.26 1202.01 1104.15C1180.68 1107.44 1159.22 1105.68 1137.8 1105.86C1112.65 1106.09 1087.49 1105.98 1062.35 1105.82C1057.44 1105.8 1053.74 1107.13 1050.16 1110.77C983.319 1178.82 902.501 1220.98 809.207 1239.34C770.17 1247.01 730.649 1248.52 690.905 1245.59C616.409 1240.08 547.457 1217.45 483.372 1179.45C480.35 1177.66 477.619 1177.44 474.222 1178.12C446.512 1183.63 418.87 1189.93 390.549 1191.1C342.599 1193.11 308.539 1163.45 303.174 1119.05C302.537 1113.81 299.39 1115.71 296.687 1115.9C273.343 1117.63 250.054 1117.53 227.777 1109.37C196.808 1098.03 173.159 1078.7 164.149 1045.57C153.766 1007.4 181.892 964.453 220.97 958.063C220.79 954.792 218.143 952.907 216.521 950.523C204.211 932.367 196.614 912.312 196.836 890.482C197.294 843.913 220.79 811.592 261.726 791.066C266.855 788.488 274.355 787.739 276.878 783.706C279.303 779.839 276.614 772.826 276.337 767.171C275.505 750.096 277.848 733.658 286.29 718.468C287.039 717.123 287.441 715.585 288.328 713.339C281.022 715.141 274.438 716.818 267.812 718.384C263.556 719.396 257.789 721.046 255.391 718.149C253.02 715.28 258.094 711.552 260.076 708.378C280.246 676.001 295.148 641.337 305.989 604.664C302.883 603.458 300.818 605.426 298.641 606.23C289.714 609.529 280.648 611.566 271.041 611.4C249.388 611.026 237.3 600.839 237.189 579.204C237.079 557.277 228.623 539.537 215.204 523.348C192.83 496.349 181.782 465.234 182.821 430.321C183.944 392.372 198.777 360.231 232.754 341.992C270.39 321.798 303.23 296.005 334.42 267.495C357.654 246.262 384.824 241.314 414.739 248.382C419.3 249.463 422.89 249.047 426.924 246.608C471.561 219.817 520.329 210.766 571.814 212.139C608.064 213.109 642.415 220.607 674.548 237.571C677.708 239.235 680.633 239.249 683.794 238.14C715.774 226.913 742.986 236.213 767.135 257.821C796.079 283.725 826.715 306.885 861.926 324.126C900.574 343.059 920.411 376.738 929.047 417.722C930.295 423.654 931.598 425.816 938.488 424.25C977.801 415.338 1016.99 416.336 1055.65 428.103C1061.03 429.739 1064.26 428.976 1068.1 424.874C1092.15 399.233 1118.03 375.671 1147.87 356.808C1159.15 349.67 1170.89 343.392 1184.24 340.703C1198.7 337.778 1207.6 341.424 1214.96 354.23C1224.84 371.389 1230.21 390.238 1233.42 409.517C1242.17 461.88 1239.66 513.827 1222.35 564.138C1216.72 580.493 1214.67 594.962 1220.74 611.455C1225.63 624.733 1226.77 639.258 1227.86 653.465C1228.16 657.248 1229.33 659.036 1232.81 660.519C1240.2 663.652 1247.81 666.548 1254.23 671.524C1256.62 673.368 1260.3 675.308 1258.56 679.216C1256.88 682.972 1253.34 681.157 1250.6 680.533C1244.57 679.161 1238.5 677.83 1232.63 675.89C1229.03 674.684 1227.78 675.1 1227.46 679.05C1226.44 691.718 1223.6 704.012 1218.72 715.765C1217.43 718.87 1219.15 720.339 1221.02 722.168C1224.8 725.869 1228.46 729.694 1232.05 733.589C1233.49 735.141 1234.77 737.469 1233.41 739.216C1232.07 740.934 1229.56 740.2 1227.63 739.313C1222.4 736.929 1217.23 734.462 1212.05 732.009L1211.87 731.842L1211.7 732.133C1211.48 732.397 1211.23 732.632 1210.94 732.813C1201.72 748.433 1189.85 761.683 1175.22 772.369C1172.79 774.129 1171.82 775.418 1173.34 778.425C1182.01 795.376 1190.27 812.521 1197.41 830.192C1198.12 831.952 1198.52 833.823 1201.17 832.091C1205.69 829.166 1211.24 829.166 1216.1 827.087L1216.11 827.074ZM902.861 447.826C902.792 446.925 902.376 446.357 901.406 446.343L901.489 446.412C896.554 439.136 889.775 433.564 883.468 427.632C866.736 411.873 849.491 396.683 829.016 385.803C819.437 380.716 817.718 381.382 812.506 390.82C806.67 398.471 804.494 407.701 801.694 416.599C790.562 451.831 790.34 488.089 792.42 524.443C792.835 531.706 792.531 539.315 795.386 546.841C801.361 537.028 807.058 527.673 812.756 518.303C826.521 500.161 841.187 482.864 859.5 469.045C861.232 467.729 861.759 466.578 860.234 464.541C851.39 452.704 841.617 441.838 829.072 433.716C825.551 431.443 823.471 432.441 820.948 435.366C818.633 438.055 818.12 442.24 814.184 443.557C814.71 439.219 815.001 434.839 815.792 430.542C819.035 412.954 826.077 409.947 840.55 420.425C858.1 433.134 871.962 449.392 884.202 467.16C886.365 470.306 885.7 471.679 882.747 473.55C873.362 479.509 865.377 487.174 857.49 494.935C825.343 526.605 805.533 565.261 793.224 608.185C788.926 618.829 787.304 630.139 785.156 641.31C784.629 644.04 784.684 646.036 788.926 645.246C795.871 643.943 802.997 643.569 810.053 642.806C824.067 642.848 838.082 643.001 851.875 645.87C857.185 646.978 862.938 647.339 867.263 652.176C844.445 654.047 822.141 654.712 800.363 659.854C799.018 660.007 797.632 660.034 796.315 660.325C787.72 662.275 784.084 667.551 785.405 676.153C786.69 684.497 791.26 687.103 799.115 683.97C817.455 678.953 835.393 671.081 855.119 675.502C838.512 683.097 821.822 690.041 805.894 698.676C804.05 699.563 802.262 700.602 800.349 701.309C795.525 703.097 794.43 705.425 797.368 710.304C805.021 723 813.726 734.614 825.371 744.025C840.98 756.638 859.292 764.011 877.368 771.897C892.908 778.675 906.299 787.795 913.729 803.761C913.854 807.032 915.67 807.947 918.748 807.822C929.38 807.393 939.86 808.945 950.312 810.58C989.127 816.679 1018.64 835.389 1033.72 873.033C1035.94 878.549 1037.56 879.769 1043.65 877.621C1049.4 875.583 1051.54 873.587 1051.05 867.406C1050.2 856.609 1054.82 847.267 1060.75 838.591C1070.54 824.288 1084.87 816.36 1100.59 810.4C1120.54 805.327 1140.42 804.246 1161.21 813.158C1158.43 806.422 1156.47 801.53 1154.38 796.707C1151.51 790.1 1146.48 787.619 1139.3 789.264C1130 791.384 1120.57 791.717 1111.12 790.733C1109.41 790.553 1107.11 790.331 1106.62 788.197C1106.15 786.076 1107.93 784.94 1109.56 784.011C1111.17 783.11 1112.78 782.223 1114.44 781.433C1129.25 774.392 1143.32 766.118 1156.43 756.236C1168.34 747.255 1178.28 736.485 1186.29 723.887C1188.12 721.004 1188.33 719.327 1184.86 717.47C1177.17 713.353 1169.86 708.516 1161.7 705.328C1144.07 695.626 1124.98 689.029 1105.24 679.896C1114.44 678.011 1121.69 678.551 1128.94 679.702C1143.5 682.002 1157.22 687.297 1171.22 691.593C1178.22 694.933 1185.36 698.024 1192.18 701.711C1196.11 703.832 1197.41 702.21 1198.6 698.897C1201.42 691.094 1202.65 682.945 1204.29 674.878C1204.99 671.372 1203.15 670.277 1200.46 669.764C1192.6 668.267 1184.71 666.895 1176.84 665.467C1151.82 660.131 1126.16 659.729 1100.8 656.209C1104.43 653.659 1108.2 652.204 1112.25 651.33C1131.77 647.089 1151.58 647.089 1171.39 647.048C1180.05 648.032 1188.73 648.933 1197.38 650.028C1205.37 651.053 1205.34 651.136 1204.27 642.876C1201.42 620.949 1196.36 599.591 1188.05 579.065C1178 554.2 1164.71 531.318 1146.49 511.456L1146.52 511.498C1146.05 510.902 1145.58 510.306 1145.11 509.71C1144.82 509.377 1144.52 509.045 1144.23 508.698C1143.61 508.075 1142.99 507.437 1142.35 506.813C1132.87 496.086 1122.26 486.62 1110.88 477.971C1102.55 471.651 1102.49 471.526 1107.75 462.212C1118.63 442.919 1133.7 427.119 1150.14 412.636C1158.03 405.692 1165.8 398.457 1176.09 394.77C1182.17 392.594 1185.72 394.327 1187.87 400.189C1190.19 406.496 1190.37 413.245 1192.03 419.676C1191.31 420.896 1190.6 422.13 1189.63 423.779C1188.61 421.922 1187.91 420.508 1187.08 419.177C1181.77 410.778 1180.4 410.46 1172.21 416.142C1154.52 428.422 1141.18 444.721 1129.36 462.448C1127.4 465.372 1127.64 466.842 1130.55 468.962C1143.26 478.207 1154.57 489.059 1164.38 501.325C1172.11 510.999 1179.21 521.158 1186.58 531.11C1189.38 536.085 1192.18 541.075 1194.98 546.051C1197.3 550.874 1199.63 555.711 1202.41 561.504C1209.59 540.354 1213.71 519.883 1215.37 499.093C1216.66 482.919 1218.84 466.62 1215.83 450.362C1216.07 440.937 1214.53 431.651 1212.82 422.462C1209.79 406.108 1206.75 389.711 1198.85 374.757C1193.36 361.881 1192.72 361.603 1180.16 366.801C1178.04 367.674 1175.94 368.617 1173.93 369.725C1138.38 389.462 1109.49 417.071 1082.74 447.174C1079.09 451.152 1075.43 455.13 1071.79 459.094C1061.35 455.019 1050.99 450.667 1039.74 449.239C1035.32 447.701 1030.91 446.121 1026.11 446.343C1023.08 444.319 1019.46 444.832 1016.16 444.486C1002.38 443.058 988.586 440.951 974.696 443.391L965.228 444.167C950.451 445.885 935.895 448.63 921.95 454.007C914.478 457.749 908.365 456.557 903.998 449.059C904.067 448.186 903.651 447.77 902.792 447.756L902.875 447.853L902.861 447.826ZM857.046 352.179L857.185 352.262C855.022 348.728 851.099 347.591 847.786 345.886C820.214 331.708 795.137 313.939 771.529 293.953C760.994 285.042 750.652 275.908 739.257 268.008C725.783 258.68 711.824 257.724 696.52 263.67C701.344 268.992 705.544 274.383 709.231 280.149C711.394 285.208 714.763 289.809 715.4 295.894C713.376 295.27 711.241 296.046 710.077 293.87C685.652 271.376 659.41 251.972 626.376 243.836C601.826 237.793 576.86 235.188 551.713 236.31C507.478 238.292 464.768 246.026 428.518 274.217C425.247 276.753 422.765 276.365 419.189 274.952C404.301 269.047 389.038 266.663 373.429 272.318C363.878 275.783 356.489 282.477 349.295 289.269C331.19 306.344 313.599 324.057 292.445 337.46C279.456 345.692 265.413 352.317 252.591 360.8C230.12 375.657 214.317 395.172 213.305 423.668C213.235 425.234 213.152 426.786 213.083 428.353C210.574 444.181 215.093 458.858 220.776 473.259C226.21 487.035 234.985 498.969 242.388 511.678C254.615 532.662 265.372 554.145 264.859 579.356C264.789 582.752 267.132 582.239 269.101 582.211C278.832 582.1 287.593 578.608 295.689 573.646C319.199 559.204 332.175 537.153 339.12 511.276C346.896 482.295 345.496 452.455 346.079 422.836C346.536 419.884 347.174 416.946 347.409 413.98C348.421 401.049 351.138 388.492 356.059 376.517C364.918 354.937 379.917 338.347 398.922 325.18C398.922 326.205 398.437 326.857 398.021 327.55C388.47 343.17 381.857 359.871 379.251 378.069C374.663 394.881 373.776 412.164 374.122 429.378C374.732 460.05 375.564 490.653 369.728 520.992C367.593 532.038 364.599 543.085 364.003 554.242C362.921 574.533 370.296 592.578 382.107 608.878C391.381 621.67 402.457 632.744 414.864 642.446C440.495 662.515 462.828 685.481 479.823 713.506C487.336 725.91 495.737 737.858 506.064 748.183C532.708 774.822 564.259 787.822 602.02 779.867C629.745 774.018 649.485 756.277 664.387 732.896C676.724 713.533 684.182 691.94 692.028 670.554C701.191 645.606 712.24 621.698 729.055 600.742C736.111 591.941 742.265 582.419 747.242 572.246C756.266 553.798 760.12 534.519 756.072 514.062C755.615 502.683 752.829 491.706 748.614 481.325C740.075 460.3 737.4 438.318 736.859 415.99C736.111 384.278 734.724 352.719 722.248 321.451C725.672 323.752 727.918 325.18 730.094 326.732C740.602 334.216 746.341 345.207 751.9 356.351C761.506 384.763 767.176 414.008 769.963 443.917C773.622 429.267 777.587 414.964 782.064 400.813C786.459 390.46 790.645 380.051 797.174 370.737C806.656 357.21 817.15 354.119 832.274 360.952C843.003 365.803 852.693 372.386 862.328 379.081C875.15 387.993 886.795 398.304 898.148 409.337C899.174 407.022 898.245 405.609 897.718 404.112C890.371 383.294 879.004 365.484 859.874 353.468C859.264 352.331 858.377 351.791 857.06 352.151L857.046 352.179ZM703.368 786.921C708.871 785.979 714.374 785.05 719.878 784.108C724.522 784.856 726.975 784.538 725.936 778.231C723.773 765.078 722.72 751.731 721.236 738.454C719.822 725.896 718.422 713.339 716.8 698.814C709.897 713.395 703.991 726.104 697.892 738.717C683.877 767.739 664.276 791.495 634.555 805.729C611.862 816.609 588.13 820.712 561.708 816.665C565.686 820.504 568.681 823.276 571.523 826.2C572.424 827.115 573.477 828.321 572.576 829.846C571.758 831.245 570.316 831.439 568.93 831.162C565.548 830.497 562.152 829.832 558.838 828.889C523.961 818.938 496.014 798.37 473.058 771.052C448.743 742.112 425.635 712.203 396.926 687.227C379.237 671.843 365.25 653.201 353.273 633.063C350.722 628.766 348.241 624.428 345.441 619.619C341.462 635.766 338.024 651.219 333.796 666.438C329.485 681.919 324.481 697.22 319.629 712.549C314.985 727.213 312.975 742.182 314.264 757.525C314.819 764.191 315.692 770.83 319.283 777.566C322.526 759.396 328.224 744.621 334.822 737.206C334.49 750.886 335.432 764.08 338.759 777.067C339.605 780.38 340.755 782.084 344.29 782.916C375.799 790.276 398.769 815.736 402.873 847.822C403.399 851.938 404.841 853.754 409.139 854.156C418.759 855.043 427.354 858.993 435.006 864.745C437.848 866.879 440.246 867.239 443.794 866.546C465.877 862.153 486.449 865.202 503.916 880.573C506.744 883.067 508.074 881.626 510.237 880.171C521.285 872.714 533.193 867.794 546.792 867.156C560.973 866.505 574.045 869.665 586.244 877.648C586.619 876.235 586.951 875.625 586.91 875.029C584.442 838.536 620.027 805.993 661.822 814.101C665.302 814.78 666.91 813.546 668.809 811.398C678.388 800.518 689.547 791.842 703.354 786.908L703.368 786.921ZM421.199 931.258C420.922 931.023 420.658 930.773 420.395 930.537C420.991 923.081 421.712 915.416 414.337 910.593C404.703 904.301 379.723 906.394 370.643 913.836C367.87 916.109 366.429 919.436 369.367 921.362C378.309 927.239 375.924 935.333 374.261 943.053C368.494 969.789 362.117 996.386 356.517 1023.15C354.507 1032.73 351.721 1042.46 354.285 1052.49C356.6 1061.61 364.349 1066.72 375.439 1066.34C389.246 1065.87 390.979 1064.15 393.377 1051.95C398.562 1025.56 403.704 999.144 411.398 973.351C414.975 961.362 420.506 950.121 429.669 941.265C434.798 936.303 441.466 932.325 448.383 935.874C455.078 939.297 452.583 946.767 452.361 952.852C452.334 953.531 452.015 954.196 451.904 954.875C449.728 968.306 445.735 981.278 442.283 994.39C438.305 1009.51 434.146 1024.58 432.497 1040.21C431.097 1053.6 436.434 1062.73 447.815 1064.95C452.791 1065.92 457.934 1065.73 462.966 1064.91C468.927 1063.94 472.545 1061.26 473.515 1054.46C476.912 1030.55 483.33 1007.24 488.82 983.759C491.509 972.27 495.973 961.417 502.723 951.66C507.09 945.354 512.011 939.519 519.58 936.913C529.478 933.517 535.023 938.133 533.609 948.389C530.975 967.405 524.474 985.381 518.942 1003.62C515.463 1015.07 511.873 1026.54 512.372 1038.71C512.815 1049.44 517.334 1057.83 527.648 1062.15C547.222 1070.37 571.301 1061.43 580.921 1042.53C582.418 1039.59 583.333 1036.55 582.959 1033.23C582.793 1031.69 583.347 1029.7 581.503 1028.96C580.048 1028.36 579.05 1029.84 578.024 1030.66C575.307 1032.82 572.507 1034.87 569.11 1035.8C562.429 1037.62 557.771 1033.96 557.91 1026.99C557.951 1024.72 558.242 1022.37 558.866 1020.18C562.817 1006.27 566.837 992.353 570.954 978.479C575.016 964.813 578.62 951.036 580.949 936.955C584.179 917.426 573.103 903.913 553.321 903.428C539.14 903.081 526.664 907.572 515.879 916.872C509.211 922.624 504.165 929.692 498.884 937.301C498.606 936.123 498.412 935.555 498.357 934.973C496.527 911.993 480.752 900.115 457.934 904.315C441.244 907.378 430.348 918.091 421.199 931.286V931.258ZM1015.3 1105.52C1003.14 1105.52 992.357 1105.7 981.586 1105.48C966.642 1105.16 951.491 1107.2 936.796 1104.01C921.562 1100.7 911.387 1105.44 903.208 1118.56C897.815 1127.21 888.375 1131.35 878.186 1133.14C866.875 1135.14 855.701 1133.88 844.473 1132.23C840.591 1131.66 836.266 1129.51 832.759 1133.38C821.96 1145.23 808.043 1148.66 792.697 1148.44C764.778 1148.05 736.887 1149.05 709.01 1150.24C667.325 1152.03 625.711 1154.87 584.234 1159.6C566.601 1161.61 549.024 1164.19 530.005 1166.68C667.644 1240.08 864.795 1236.47 1015.3 1105.52ZM728.569 1036.47C729.138 1036.86 729.554 1037.04 729.817 1037.36C730.261 1037.87 730.663 1038.45 731.009 1039.05C742.737 1059.2 760.647 1066.93 783.354 1065.35C801.971 1064.06 822.03 1048.6 826.743 1031.67C827.63 1028.49 828.725 1025.31 825.093 1023.07C821.794 1021.03 819.216 1022.21 816.443 1024.59C811.536 1028.8 806.116 1032.26 799.781 1034.13C779.181 1040.21 762.851 1028.64 762.615 1007.89C762.574 1004.37 763.378 1002.86 767.135 1003.05C771.737 1003.29 776.367 1003.09 780.969 1002.98C808.029 1002.37 833.314 984.328 842.158 958.812C847.744 942.665 847.689 926.92 835.074 913.642C822.446 900.365 806.85 899.547 790.326 904.426C771.862 909.886 757.667 921.404 746.909 936.941C730.857 960.114 721.749 985.755 724.854 1014.22C725.797 1022.84 726.144 1028.71 717.064 1032.45C712.669 1034.26 708.511 1036.94 704.13 1034.2C699.445 1031.26 700.484 1026.39 701.524 1021.69C712.683 971.41 726.282 921.695 735.806 871.037C738.356 857.482 742.016 844.093 742.238 830.206C742.376 820.961 737.4 815.39 729.027 814.683C716.19 813.602 699.112 823.234 693.248 834.641C691.973 837.122 691.793 839.187 694.191 840.615C700.055 844.107 700.443 849.277 698.946 855.043C691.307 884.675 685.083 914.612 679.011 944.578C673.259 972.963 664.733 1000.72 659.743 1029.28C656.956 1045.19 664.068 1058.48 677.126 1062C684.335 1063.95 691.612 1063.86 698.918 1061.69C712.572 1057.65 721.749 1048.44 728.569 1036.45V1036.47ZM348.893 995.845C348.934 979.823 343.112 963.912 332.022 949.345C322.083 936.289 310.632 924.564 299.667 912.409C291.793 903.677 284.086 894.821 280.426 883.234C273.911 862.583 283.49 843.026 303.161 837.621C320.253 832.922 339.633 841.419 338.011 864.232C337.428 872.478 335.349 880.143 331.052 887.087C327.988 892.035 329.25 895.223 334.018 897.717C337.775 899.685 341.629 900.725 345.968 899.935C356.351 898.05 363.351 891.647 368.258 882.901C382.661 857.191 370.227 825.549 341.282 813.602C309.496 800.49 268.033 812.77 245.271 841.848C224.575 868.265 223.992 909.152 247.891 933.864C259.757 946.13 272.885 957.121 283.753 970.357C292.085 980.502 298.877 991.133 299.903 1004.74C300.956 1018.71 293.18 1033.02 280.44 1039.53C267.992 1045.88 253.519 1044.05 243.095 1034.79C232.019 1024.95 230.73 1017.08 237.342 999.574C240.406 991.465 237.855 987.709 229.177 987.765C227.125 987.765 225.018 987.987 223.022 988.43C196.975 994.293 184.928 1023.58 199.317 1046.16C207.053 1058.28 217.962 1066.46 231.645 1070.74C251.163 1076.84 270.75 1075.87 290.241 1070.47C325.756 1060.63 348.823 1031.23 348.92 995.845H348.893ZM910.208 997.009C910.208 996.926 910.208 996.857 910.208 996.774C913.882 996.51 917.569 996.372 921.229 995.97C951.352 992.56 977.025 980.918 995.282 955.721C1020.03 921.556 1014.74 874.211 982.889 849.818C961.901 833.754 937.309 830.026 911.608 831.633C908.476 831.827 906.563 833.407 905.287 836.803C900.214 850.15 891.522 860.781 878.699 867.295C874.624 869.36 873.251 872.104 872.447 875.985C866.708 903.455 862.134 931.12 857.406 958.77C852.139 989.581 846.414 1020.32 840.938 1051.09C839.427 1059.57 841.562 1063.62 849.533 1066.74C859.056 1070.47 868.871 1070.38 878.727 1068.18C883.232 1067.18 885.658 1064.67 886.296 1059.71C888.292 1043.97 890.69 1028.28 893.061 1012.59C893.851 1007.36 893.532 1000.92 896.526 997.453C898.55 995.111 905.481 997.009 910.222 997.009H910.208ZM738.897 1111.27C744.664 1111.27 750.43 1111.28 756.197 1111.27C769.574 1111.21 782.952 1111.1 796.329 1111.1C801.444 1111.1 804.868 1109.07 805.339 1103.7C805.797 1098.57 802.345 1097.4 798.075 1096.5C775.452 1091.69 752.44 1089.79 729.484 1089.11C665.385 1087.22 601.285 1088.42 537.241 1091.88C522.283 1092.68 507.34 1093.63 492.41 1094.75C457.726 1097.37 423.14 1100.96 388.664 1105.56C375.924 1107.25 362.991 1108.23 350.695 1112.41C340.963 1115.71 338.108 1121.85 342.183 1131.23C347.451 1143.37 357.792 1148.93 370.213 1151.09C387.375 1154.06 404.273 1150.6 420.991 1147.74C474.721 1138.52 528.272 1128.36 582.418 1121.61C634.416 1115.14 686.553 1112.03 738.897 1111.28V1111.27ZM1055.4 1002.91C1055.4 1003.15 1055.4 1003.37 1055.4 1003.61C1059.31 1003.4 1063.24 1003.37 1067.13 1002.97C1091.86 1000.42 1111.35 989.026 1124.02 967.516C1138.94 942.18 1127.96 915.25 1099.83 906.782C1087.91 903.192 1076.04 904.065 1064.61 908.473C1029.24 922.083 1009.52 949.359 999.662 984.633C994.713 1002.35 994.81 1020.24 1002.89 1037.23C1013.8 1060.15 1042.33 1073.47 1069.35 1068.93C1090.77 1065.32 1107.82 1055.33 1118.16 1035.72C1120.49 1031.3 1124.12 1025.71 1118.73 1021.25C1113.2 1016.69 1109.08 1021.79 1104.93 1024.85C1104.56 1025.13 1104.21 1025.44 1103.87 1025.74C1092.96 1035.07 1080.26 1038.74 1066.08 1037.52C1050.11 1036.15 1038.34 1023.81 1038.14 1008.61C1038.09 1004.54 1039.31 1002.58 1043.65 1002.86C1047.54 1003.11 1051.47 1002.91 1055.38 1002.91H1055.4ZM1230.21 935.513C1236.7 935.513 1241.55 935.513 1246.39 935.513C1249.12 935.513 1251.2 935.084 1251.86 931.702C1252.89 926.532 1254.58 921.501 1255.73 916.359C1256.98 910.773 1254.99 907.946 1248.82 907.239C1241.23 906.38 1233.65 905.881 1226.06 906.338C1221.18 906.629 1220.31 905.132 1221.5 900.697C1224.29 890.261 1226.89 879.783 1229.25 869.249C1230.73 862.624 1227.53 859.048 1221.02 860.739C1206.97 864.398 1194.93 870.94 1190.03 886.061C1188.12 891.965 1185.7 897.703 1184.02 903.649C1183.2 906.56 1181.84 907.087 1179.15 907.059C1172.47 907.017 1165.79 907.447 1159.09 907.433C1153.37 907.419 1149.56 909.484 1148.1 915.403C1146.83 920.531 1145.31 925.617 1143.47 930.565C1141.97 934.585 1143.51 935.901 1147.21 936.58C1153.41 937.717 1159.66 937.537 1165.82 937.038C1171.56 936.58 1172.08 937.952 1170.49 943.261C1163.03 968.125 1154.88 992.838 1151.25 1018.7C1148.06 1041.37 1158.21 1060.79 1176.68 1066.86C1200.47 1074.69 1230.68 1060.96 1240.16 1037.99C1241.21 1035.44 1242.27 1032.86 1241.75 1029.98C1240.83 1024.81 1237.89 1023.75 1233.81 1027.04C1231.66 1028.78 1229.63 1030.73 1227.23 1032.03C1219.46 1036.26 1211.23 1040.85 1202.69 1034.87C1194.41 1029.1 1195.59 1020.06 1196.97 1011.48C1200.13 991.701 1205.28 972.367 1209.93 952.921C1211.26 947.35 1211.09 940.156 1214.57 936.691C1218.49 932.797 1225.94 936.137 1230.17 935.499L1230.21 935.513ZM633.64 905.936C624.31 905.354 617.227 907.156 610.379 910.08C603.85 912.866 602.921 915.694 607.689 920.905C611.571 925.146 612.125 929.567 611.335 934.889C608.369 954.723 602.255 973.78 597.307 993.129C593.383 1008.46 588.13 1023.55 588.49 1039.68C588.795 1053.27 596.724 1062.08 610.06 1064.06C624.047 1066.14 636.024 1061.94 645.991 1052.25C650.58 1047.79 655.002 1042.82 654.974 1035.73C654.974 1033.32 656.111 1029.97 653.657 1028.72C651.37 1027.57 650.164 1030.95 648.376 1032.19C643.843 1035.33 639.171 1038.09 633.778 1034.69C628.649 1031.47 629.994 1026.41 630.923 1021.6C634.18 1004.65 639.92 988.361 644.411 971.743C648.32 957.329 651.8 942.817 654.336 928.098C656.651 914.64 650.247 906.768 636.676 905.95C635.068 905.853 633.446 905.95 633.64 905.95V905.936ZM810.69 822.43C810.773 830.982 810.274 838.702 811.286 846.38C812.783 857.773 817.344 865.036 824.816 866.879C838.415 870.219 852.208 858.965 851.737 844.981C851.57 840.143 851.155 835.251 851.681 830.483C852.291 825.036 852.069 818.966 858.044 814.461C858.474 823.331 861.011 830.899 862.965 838.591C864.31 843.913 867.72 845.438 872.905 843.484C884.189 839.201 890.524 827.42 887.821 815.639C885.617 805.993 879.6 799.382 871.283 794.586C847.883 781.1 814.655 784.87 794.014 803.484C781.468 814.794 773.511 828.252 775.286 845.951C776.519 858.286 786.043 867.752 796.551 867.226C800.668 867.018 802.317 865.812 801.07 861.252C799.046 853.865 798.574 846.214 800.349 838.702C801.777 832.604 803.121 826.2 810.676 822.444L810.69 822.43ZM1146.42 862.028C1145.43 870.594 1143.11 877.551 1143.36 884.939C1143.58 891.674 1146.6 893.365 1152.5 892.561C1155.52 892.16 1158.28 891.189 1160.91 889.665C1176.91 880.406 1180.39 861.46 1168.7 847.101C1154.93 830.164 1129.59 822.846 1107.17 830.123C1089.55 835.833 1076.61 846.99 1071.46 865.465C1069.25 873.379 1073.42 882.43 1079.88 885.507C1083.2 887.073 1085 887.53 1085.65 882.638C1086.72 874.544 1089.96 867.156 1096.02 861.307C1097.03 860.323 1098.32 859.353 1099.69 860.046C1101.48 860.975 1100.12 862.361 1099.79 863.594C1098.82 867.142 1097.75 870.677 1097.03 874.28C1094.2 888.334 1098.11 896.636 1108.61 899.2C1121.37 902.333 1128.35 898.313 1131.84 885.673C1134.28 876.83 1137.05 868.251 1146.44 862L1146.42 862.028ZM762.588 801.391C776.464 783.914 793.182 773.394 812.964 767.753C812.576 766.742 812.534 766.159 812.243 765.938C795.566 753.713 782.633 738.329 773.525 719.757C772.305 717.276 770.864 717.262 768.576 718.454C763.059 721.323 757.459 724.039 751.789 726.603C748.961 727.878 748.337 729.597 748.933 732.577C753.452 754.891 757.819 777.22 762.602 801.391H762.588ZM667.575 865.257C667.797 852.991 659.285 844.08 647.183 843.899C632.891 843.692 620.457 855.722 620.263 869.956C620.096 882.873 628.76 892.132 641.333 892.464C655.279 892.825 667.284 880.365 667.561 865.257H667.575ZM770.614 582.211C764.334 594.616 759.635 607.519 751.941 618.69C745.551 627.976 742.765 637.9 742.168 648.933C741.614 659.203 741.281 659.161 750.555 655.558C753.342 654.477 756.183 653.506 759.039 652.605C761.506 651.829 762.615 650.499 762.796 647.671C763.877 630.984 768.119 614.934 774.038 599.411C776.644 592.578 775.189 587.561 770.614 582.225V582.211ZM746.466 716.319C748.725 714.559 750.001 713.132 751.609 712.383C763.821 706.673 767.828 697.747 762.726 685.024C762.227 683.762 762.394 682.252 761.922 680.977C760.467 676.999 763.932 670.803 759.871 669.196C756.239 667.754 751.027 670.457 746.48 671.15C742.889 671.69 741.669 673.34 741.822 677.137C742.349 690.041 744.012 702.792 746.452 716.333L746.466 716.319Z" fill="#021A2F"/>
<path d="M1216.11 827.073C1211.27 829.152 1205.7 829.152 1201.18 832.077C1198.52 833.796 1198.13 831.924 1197.42 830.178C1190.28 812.521 1182.02 795.376 1173.36 778.411C1171.82 775.418 1172.8 774.129 1175.23 772.355C1189.88 761.669 1201.73 748.419 1210.95 732.799C1214.89 764.094 1216.51 795.528 1216.11 827.06V827.073Z" fill="#009AC3"/>
<path d="M1211.73 732.119L1211.9 731.828C1211.9 731.828 1212.08 731.981 1212.08 731.995L1211.74 732.119H1211.73Z" fill="#009AC3"/>
<path d="M213.083 428.38C213.152 426.814 213.235 425.262 213.305 423.71C215.038 417.764 217.713 412.289 220.998 407.022C229.801 392.941 242.069 382.476 256.334 374.701C289.492 356.628 319.948 334.951 347.825 309.504C357.363 300.8 367.87 293.247 380.471 289.213C390.771 285.915 402.291 282.547 411.232 288.77C420.104 294.937 424.72 290.253 430.833 286.386C432.386 285.402 434.049 284.584 435.671 283.711C465.697 267.439 497.9 259.331 531.807 255.964C583.791 250.794 633.806 255.659 681.049 279.747C690.628 284.626 699.722 290.572 710.077 293.884C711.242 296.074 713.376 295.284 715.4 295.908C714.749 289.809 711.394 285.222 709.232 280.163C721.209 276.504 731.508 280.69 740.866 287.564C760.495 302.006 779.154 317.765 799.795 330.821C817.428 341.964 835.712 351.389 857.199 352.262L857.06 352.179C857.642 353.357 858.765 353.426 859.874 353.495C879.004 365.512 890.371 383.322 897.718 404.139C898.245 405.636 899.16 407.05 898.148 409.365C886.795 398.346 875.151 388.02 862.328 379.109C852.693 372.414 843.004 365.845 832.274 360.98C817.15 354.133 806.657 357.238 797.175 370.765C790.645 380.079 786.459 390.487 782.065 400.841C779.181 400.467 778.876 397.833 777.864 395.907C775.023 390.404 772.735 384.583 769.422 379.4C764.238 371.278 760.481 361.964 751.9 356.392C746.341 345.263 740.588 334.258 730.095 326.774C727.918 325.221 725.672 323.794 722.248 321.493C734.725 352.761 736.097 384.32 736.859 416.031C737.386 438.359 740.075 460.327 748.615 481.367C752.829 491.748 755.629 502.725 756.073 514.104C755.324 518.386 754.659 522.697 753.813 526.966C749.349 549.585 734.364 565.884 719.351 581.629C706.182 595.433 696.631 610.61 690.656 628.739C682.255 654.282 677.584 680.921 667.437 705.924C660.644 722.667 651.342 738.01 636.718 748.571C611.294 766.936 583.306 773.408 552.642 762.376C535.813 756.319 521.715 746.839 509.974 733.187C497.414 718.592 487.766 702.21 478.063 685.786C457.56 651.067 432.525 619.536 408.695 587.159C402.083 578.178 397.203 568.393 394.458 557.554C388.262 533.133 387.915 508.061 386.404 483.141C385.892 474.631 387.278 465.927 386.03 457.569C382.093 431.194 381.359 404.583 379.265 378.083C381.858 359.885 388.47 343.17 398.035 327.564C398.465 326.871 398.936 326.219 398.936 325.194C379.931 338.36 364.932 354.937 356.074 376.531C351.152 388.492 348.435 401.063 347.423 413.994C347.188 416.96 346.55 419.898 346.093 422.85C342.863 434.992 339.938 447.216 336.333 459.246C332.882 470.764 328.543 482.004 322.222 492.496C321.307 468.366 316.885 444.971 312.268 419.676C305.587 446.745 296.243 470.847 285.306 494.437C278.139 474.672 271.485 455.241 262.128 435.158C260.077 453.397 258.857 470.099 258.704 487.95C239.671 473.383 225.809 456.391 217.131 435.241C216.133 432.802 216.244 429.586 213.097 428.367L213.083 428.38ZM557.771 565.69C558.187 568.393 560.114 569.211 562.471 570.014C567.53 571.733 567.128 574.63 563.233 577.235C558.298 580.548 553.488 584.276 547.638 585.815C527.621 591.123 509.059 586.591 491.357 577C468.969 564.859 452.681 546.467 438.971 525.469C441.064 523.681 443.185 521.921 445.25 520.105C449.769 516.141 449.423 511.609 444.016 509.405C434.063 505.344 424.873 508.241 416.694 514.09C408.959 519.62 405.618 527.534 407.392 537.069C407.836 539.44 407.503 542.863 409.915 543.916C412.59 545.094 413.935 541.643 415.959 540.368C417.47 539.412 418.69 537.998 420.076 536.778C421.961 538.511 421.92 540.59 422.35 542.558C425.843 558.469 431.166 573.715 442.117 586.078C467.846 615.142 487.808 647.796 504.276 682.792C511.457 698.038 520.052 712.397 531.89 724.718C568.126 762.486 633.099 752.798 651.287 703.79C654.96 693.88 658.551 683.956 661.878 673.922C670.653 647.422 680.051 621.241 698.558 599.522C711.699 584.096 721.126 566.73 724.799 546.882C727.766 545.926 729.457 553.729 731.8 548.074C736.042 537.804 735.584 527.243 729.332 517.666C723.524 508.754 714.499 507.631 704.851 508.643C699.292 509.225 700.554 512.08 702.702 515.129C706.612 520.687 709.786 526.467 708.636 533.646C706.376 535.018 705.225 537.236 703.895 539.412C695.744 552.69 686.802 565.288 674.784 575.558C659.66 588.49 643.261 592.578 624.657 584.221C622.065 583.057 618.267 582.599 617.837 579.148C617.407 575.752 620.693 574.256 623.063 572.509C625.655 570.597 628.497 568.92 628.511 565.122C638.242 559.107 646.463 551.525 652.313 541.616C665.122 519.897 663.735 487.049 635.775 471.207C607.523 455.199 577.622 456.419 548.442 467.105C520.384 477.389 510.306 505.58 522.866 532.815C530.06 548.421 542.55 558.538 557.771 565.69ZM428.366 456.821C444.848 462.739 459.917 470.528 477.328 468.907C495.377 467.216 506.508 457.112 509.849 439.496C512.705 424.416 508.033 411.18 498.108 399.968C486.089 386.385 466.848 384.292 451.724 394.285C432.206 407.175 427.146 428.505 438.014 452.635C435.131 453.633 431.624 452.885 428.366 456.835V456.821ZM710.659 446.481C709.273 429.101 700.152 417.625 686.594 409.351C674.063 401.7 661.268 401.977 648.958 410.168C636.357 418.554 630.84 430.695 629.967 446.565C643.718 439.842 654.711 429.281 670.306 429.739C685.61 430.182 697.047 439.773 710.646 446.481H710.659ZM429.724 369.462C435.2 363.641 439.775 358.734 445.722 355.602C461.358 347.369 477.758 343.087 495.557 346.552C497.761 346.981 500.561 347.799 502.1 345.873C503.805 343.738 502.654 341.022 501.476 338.749C497.068 330.197 489.943 325.166 480.655 323.253C454.344 317.82 428.269 340.731 429.71 369.462H429.724ZM703.978 371.874C707.333 357.335 692.999 332.664 673.702 327.189C657.996 322.727 640.474 331.264 634.888 346.469C632.947 351.749 634.07 353.121 639.712 352.248C640.835 352.068 641.93 351.68 643.039 351.389C660.963 346.857 677.168 350.225 691.585 361.908C695.633 365.179 699.68 368.436 703.978 371.888V371.874Z" fill="#FD9500"/>
<path d="M1171.21 691.621C1157.21 687.324 1143.48 682.016 1128.93 679.729C1121.68 678.579 1114.43 678.052 1105.22 679.923C1124.96 689.057 1144.05 695.654 1161.69 705.356C1161.98 708.059 1160.77 710.304 1159.3 712.383C1142.85 735.834 1122.8 755.349 1097.2 768.737C1083.42 775.944 1069.02 781.641 1053.09 786.935C1069.03 796.318 1084.1 804.745 1100.57 810.414C1084.85 816.36 1070.51 824.302 1060.73 838.605C1054.79 847.281 1050.18 856.623 1051.02 867.42C1051.51 873.601 1049.37 875.597 1043.62 877.634C1037.53 879.783 1035.91 878.563 1033.69 873.047C1018.61 835.417 989.099 816.692 950.285 810.594C939.832 808.959 929.352 807.392 918.72 807.836C915.642 807.961 913.826 807.046 913.702 803.775C916.904 800.657 922.31 803.609 925.429 799.631C922.504 796.499 919.621 793.616 916.377 791.01C900.962 778.675 882.969 770.969 865.572 762.154C838.055 748.211 816.027 729.001 805.88 698.689C821.808 690.055 838.498 683.111 855.105 675.516C835.365 671.094 817.441 678.967 799.101 683.984C799.517 675.945 799.933 667.907 800.349 659.882C822.127 654.74 844.431 654.075 867.249 652.203C862.91 647.366 857.157 647.006 851.862 645.897C838.069 643.014 824.054 642.876 810.039 642.834C811.882 633.465 817.372 625.703 821.669 617.471C824.054 612.897 822.709 612.55 818.717 612.62C813.227 612.717 807.724 612.814 802.248 612.523C798.796 612.329 794.707 612.814 793.224 608.226C805.52 565.302 825.329 526.647 857.49 494.977C865.377 487.202 873.362 479.537 882.747 473.591C885.7 471.72 886.365 470.348 884.203 467.202C871.976 449.434 858.1 433.176 840.55 420.466C826.078 409.974 819.035 412.982 815.792 430.584C815.002 434.881 814.71 439.26 814.184 443.599C811.494 468.477 810.288 493.383 812.742 518.359C807.044 527.714 801.347 537.069 795.372 546.896C792.517 539.384 792.822 531.761 792.406 524.499C790.313 488.144 790.534 451.901 801.68 416.655C804.494 407.757 806.656 398.526 812.479 390.889C812.34 392.192 812.659 393.343 814.184 393.149C820.851 392.331 826.161 395.574 831.65 398.568C847.481 407.189 862.203 417.459 876.537 428.325C884.729 434.534 893.144 440.425 901.461 446.454L901.378 446.384C901.309 447.438 901.835 447.881 902.834 447.867L902.75 447.77C902.639 448.685 903.194 448.976 903.956 449.073C908.323 456.571 914.436 457.763 921.908 454.021C922.989 478.733 929.408 501.63 944.85 523.099C946.777 512.385 947.276 503.099 949.342 494.021C953.237 476.945 960.252 460.896 965.187 444.181C968.347 443.917 971.494 443.668 974.655 443.404C974.613 446.163 975.07 449.045 974.433 451.651C969.567 471.609 969.9 491.498 974.752 511.359C976.679 519.246 979.201 526.896 984.719 533.923C988.656 527.395 990.777 521.103 993.175 514.908C1001.4 493.757 1009.16 472.413 1018.45 451.679C1019.97 448.297 1021.75 445.594 1026.06 446.329C1030.85 446.107 1035.26 447.673 1039.68 449.226C1038.6 450.958 1036.38 451.471 1035.64 453.744C1029.29 473.3 1024.32 493.051 1025.97 513.868C1026.13 515.822 1026.19 517.957 1028.62 518.941C1043.19 499.024 1056.39 478.262 1071.73 459.066C1075.38 455.088 1079.04 451.111 1082.68 447.147C1084.64 448.865 1086.25 448.533 1087.95 446.578C1102.44 430.002 1119.72 416.599 1137.14 403.336C1150.86 392.871 1164.28 381.894 1180.66 375.657C1186.57 373.412 1192.61 372.456 1198.78 374.743C1206.68 389.684 1209.72 406.094 1212.75 422.448C1214.46 431.637 1216.01 440.91 1215.76 450.348C1215.82 472.178 1214.47 493.91 1208.43 514.963C1205.32 525.801 1203.29 537.388 1194.91 546.051C1192.11 541.075 1189.31 536.085 1186.51 531.11C1188.34 529.447 1188.76 527.09 1189.17 524.901C1192.57 506.661 1193.74 488.158 1194.76 469.697C1195.69 452.968 1194.1 436.294 1191.98 419.69C1190.31 413.259 1190.13 406.523 1187.82 400.203C1185.67 394.327 1182.12 392.594 1176.03 394.784C1165.75 398.471 1157.97 405.706 1150.08 412.649C1133.63 427.147 1118.57 442.947 1107.69 462.226C1102.44 471.54 1102.49 471.665 1110.82 477.985C1122.21 486.633 1132.82 496.114 1142.31 506.827C1142.53 507.867 1143.14 508.504 1144.18 508.712C1144.47 509.045 1144.76 509.377 1145.05 509.724C1145.52 510.32 1145.99 510.916 1146.46 511.512L1146.44 511.47C1146.22 513.383 1146.77 514.963 1147.93 516.585C1166.44 542.447 1177.17 571.581 1183.73 602.405C1186 613.091 1184.96 614.588 1174.12 617.886C1164.14 620.922 1153.81 622.349 1142.18 622.599C1147.12 628.309 1152.92 630.776 1157.74 634.477C1162.63 638.247 1167.77 641.809 1171.32 647.048C1151.51 647.089 1131.7 647.089 1112.18 651.33C1108.12 652.217 1104.35 653.659 1100.73 656.209C1126.09 659.729 1151.75 660.145 1176.77 665.467C1175.53 674.324 1175.34 683.388 1171.15 691.607L1171.21 691.621ZM981.392 783.47C989.668 783.623 997.749 783.027 1005.61 781.17C1013.43 779.312 1021.3 777.233 1028.76 774.281C1056.32 763.374 1078.28 746.007 1090.72 718.315C1097.28 703.721 1098.6 688.932 1090.57 674.449C1083.7 662.03 1072.61 654.296 1059.94 648.586C1049.43 643.86 1039.06 638.953 1029.2 632.883C1018.63 626.355 1007.76 620.312 995.753 616.556C976.554 610.555 958.533 611.4 942.133 624.428C939.458 626.549 936.228 627.99 933.275 629.764C920.813 637.263 906.729 641.504 894.447 649.376C867.942 666.368 859.819 693.007 874.901 720.505C897.802 762.251 935.064 780.906 981.392 783.47ZM1078.48 589.307C1056.9 589.377 1037.1 604.054 1031.32 624.29C1030.77 626.23 1029.27 628.642 1031.01 630.111C1032.84 631.663 1034.8 629.529 1036.55 628.586C1039.59 626.965 1042.52 625.135 1045.53 623.444C1054 618.69 1062.71 614.796 1072.59 613.812C1090.38 612.051 1105.49 618.469 1119.66 628.309C1121.03 629.265 1122.47 631.538 1124.34 630.208C1126.06 628.988 1124.81 626.798 1124.48 625.052C1120.68 605.246 1100.03 589.196 1078.5 589.28L1078.48 589.307ZM843.877 625.094C849.852 623.541 854.731 620.007 859.916 617.193C875.83 608.559 891.55 608.877 907.242 617.651C913.258 621.019 919.274 624.387 925.291 627.755C926.691 628.545 928.327 629.861 929.713 628.85C931.057 627.866 930.461 625.842 930.212 624.276C927.522 606.812 908.975 589.695 890.621 587.727C871.879 585.718 852.513 597.083 845.61 614.297C844.279 617.609 842.38 620.949 843.849 625.08L843.877 625.094ZM1116.41 566.064C1115.33 550.514 1107.72 541.643 1097.32 535.295C1084.31 527.34 1070.68 526.98 1057.63 535.739C1047.5 542.53 1042.07 552.412 1043.87 561.56C1068.39 543.528 1092.1 548.684 1116.41 566.064ZM928.659 561.615C928.659 559.758 928.853 558.608 928.632 557.554C925.707 543.293 913.216 530.639 900.921 529.377C884.549 527.686 866.14 538.248 859.943 552.953C858.89 555.448 856.991 558.663 859.264 560.659C861.399 562.544 863.686 559.342 865.904 558.455C868.663 557.346 871.283 555.905 873.931 554.533C888.126 547.159 902.071 547.464 915.961 555.489C919.87 557.748 924.098 559.439 928.659 561.615Z" fill="#FD9500"/>
<path d="M1015.31 1105.53C864.795 1236.48 667.644 1240.1 530.019 1166.7C549.038 1164.19 566.601 1161.62 584.248 1159.61C625.711 1154.9 667.339 1152.05 709.024 1150.26C736.901 1149.07 764.792 1148.07 792.711 1148.46C808.056 1148.66 821.988 1145.24 832.773 1133.39C836.294 1129.52 840.605 1131.67 844.487 1132.24C855.715 1133.89 866.888 1135.14 878.2 1133.16C888.375 1131.37 897.829 1127.22 903.222 1118.57C911.401 1105.45 921.575 1100.72 936.81 1104.02C951.504 1107.21 966.656 1105.17 981.6 1105.49C992.371 1105.73 1003.16 1105.53 1015.31 1105.53Z" fill="#009AC3"/>
<path d="M421.213 931.272C430.376 918.077 441.272 907.364 457.948 904.301C480.766 900.115 496.541 911.979 498.371 934.959C498.412 935.541 498.62 936.109 498.898 937.287C504.179 929.678 509.225 922.61 515.893 916.858C526.678 907.558 539.154 903.067 553.335 903.414C573.117 903.899 584.193 917.412 580.963 936.941C578.634 951.022 575.03 964.799 570.968 978.465C566.851 992.339 562.831 1006.24 558.88 1020.17C558.256 1022.36 557.979 1024.7 557.924 1026.97C557.771 1033.95 562.443 1037.6 569.124 1035.79C572.507 1034.87 575.321 1032.82 578.038 1030.65C579.078 1029.82 580.076 1028.35 581.517 1028.94C583.361 1029.69 582.793 1031.69 582.973 1033.21C583.333 1036.54 582.432 1039.57 580.935 1042.51C571.315 1061.4 547.236 1070.34 527.662 1062.14C517.348 1057.81 512.829 1049.41 512.386 1038.7C511.887 1026.54 515.477 1015.07 518.956 1003.61C524.488 985.367 530.989 967.377 533.623 948.375C535.051 938.133 529.492 933.503 519.594 936.899C512.025 939.491 507.104 945.34 502.737 951.646C495.986 961.417 491.523 972.27 488.833 983.746C483.344 1007.22 476.926 1030.54 473.529 1054.44C472.559 1061.26 468.941 1063.94 462.98 1064.9C457.934 1065.71 452.791 1065.91 447.829 1064.94C436.448 1062.72 431.111 1053.59 432.511 1040.2C434.16 1024.56 438.319 1009.5 442.297 994.376C445.749 981.265 449.742 968.292 451.918 954.861C452.029 954.182 452.348 953.517 452.375 952.838C452.597 946.754 455.092 939.283 448.397 935.86C441.48 932.312 434.812 936.303 429.683 941.251C420.52 950.108 414.989 961.348 411.412 973.337C403.718 999.13 398.575 1025.56 393.391 1051.94C390.993 1064.13 389.26 1065.84 375.453 1066.32C364.363 1066.71 356.628 1061.58 354.299 1052.48C351.748 1042.44 354.535 1032.71 356.531 1023.14C362.131 996.372 368.508 969.761 374.275 943.039C375.938 935.305 378.323 927.225 369.381 921.348C366.442 919.422 367.884 916.082 370.657 913.822C379.737 906.38 404.717 904.287 414.351 910.579C421.726 915.402 421.019 923.067 420.423 930.524C419.66 931.189 419.397 932.422 420.076 932.741C421.116 933.226 420.963 931.882 421.227 931.244L421.213 931.272Z" fill="#FC6100"/>
<path d="M728.584 1036.48C721.763 1048.47 712.586 1057.69 698.932 1061.72C691.626 1063.88 684.349 1063.97 677.14 1062.03C664.068 1058.49 656.97 1045.21 659.757 1029.3C664.747 1000.75 673.273 972.99 679.026 944.605C685.097 914.626 691.335 884.689 698.96 855.07C700.443 849.305 700.055 844.135 694.205 840.642C691.807 839.215 691.987 837.15 693.262 834.669C699.126 823.262 716.204 813.629 729.041 814.71C737.4 815.417 742.39 820.989 742.252 830.234C742.044 844.121 738.37 857.524 735.82 871.065C726.296 921.723 712.697 971.438 701.538 1021.72C700.498 1026.42 699.459 1031.28 704.144 1034.22C708.525 1036.97 712.67 1034.29 717.078 1032.48C726.171 1028.72 725.811 1022.86 724.868 1014.25C721.749 985.783 730.857 960.142 746.923 936.968C757.681 921.431 771.89 909.914 790.34 904.453C806.851 899.561 822.446 900.378 835.088 913.67C847.717 926.934 847.772 942.693 842.172 958.839C833.342 984.355 808.043 1002.4 780.983 1003.01C776.367 1003.11 771.751 1003.32 767.149 1003.08C763.378 1002.89 762.588 1004.38 762.63 1007.92C762.865 1028.65 779.195 1040.24 799.795 1034.15C806.13 1032.28 811.55 1028.83 816.457 1024.62C819.23 1022.23 821.808 1021.06 825.107 1023.09C828.739 1025.34 827.644 1028.5 826.757 1031.7C822.044 1048.62 801.985 1064.09 783.368 1065.38C760.661 1066.96 742.751 1059.24 731.023 1039.07C730.677 1038.48 730.289 1037.91 729.831 1037.38C729.568 1037.08 729.152 1036.9 728.584 1036.5V1036.48ZM765.776 978.534C780.11 977.509 792.018 973.461 801.735 964.12C808.403 957.717 812.895 950.163 813.172 940.558C813.463 930.579 806.975 925.728 797.438 928.985C794.582 929.955 792.087 931.563 789.786 933.545C776.201 945.229 770.531 961.098 765.776 978.534Z" fill="#FC6100"/>
<path d="M703.368 786.935C689.561 791.869 678.401 800.546 668.823 811.426C666.923 813.588 665.302 814.808 661.836 814.128C620.041 806.006 584.456 838.563 586.924 875.056C586.965 875.638 586.632 876.262 586.258 877.676C574.073 869.693 560.987 866.533 546.806 867.184C533.207 867.808 521.313 872.728 510.251 880.198C508.088 881.654 506.757 883.095 503.93 880.6C486.463 865.23 465.891 862.181 443.808 866.574C440.26 867.281 437.848 866.907 435.02 864.772C427.354 859.021 418.773 855.07 409.152 854.183C404.855 853.781 403.413 851.952 402.887 847.849C398.783 815.764 375.813 790.303 344.304 782.944C340.769 782.112 339.619 780.407 338.773 777.095C335.46 764.108 334.503 750.913 334.836 737.234C328.238 744.635 322.554 759.41 319.296 777.594C315.706 770.858 314.847 764.219 314.278 757.552C312.989 742.209 314.999 727.241 319.643 712.577C324.495 697.248 329.499 681.947 333.81 666.465C338.038 651.247 341.476 635.793 345.455 619.647C348.255 624.456 350.736 628.794 353.287 633.091C365.25 653.229 379.251 671.871 396.94 687.255C425.662 712.244 448.771 742.14 473.072 771.08C496.014 798.397 523.975 818.965 558.852 828.917C562.165 829.859 565.562 830.525 568.944 831.19C570.33 831.467 571.758 831.273 572.59 829.873C573.491 828.349 572.437 827.143 571.536 826.228C568.695 823.304 565.7 820.532 561.722 816.692C588.143 820.74 611.876 816.637 634.569 805.757C664.29 791.509 683.891 767.767 697.906 738.745C703.991 726.132 709.911 713.436 716.814 698.842C718.436 713.367 719.836 725.924 721.25 738.481C722.747 751.745 723.787 765.092 725.949 778.259C726.989 784.551 724.536 784.884 719.892 784.136C716.648 775.612 714.624 766.603 709.758 756.943C706.168 767.767 704.116 777.206 703.368 786.949V786.935ZM468.955 824.426C499.715 857.08 570.996 873.712 586.411 852.257C566.463 850.885 547.457 846.547 530.102 837.108C501.989 821.834 479.823 799.645 459.209 775.515C446.096 760.158 432.067 745.536 416.264 732.743C399.851 719.452 382.107 707.754 367.801 691.912C364.585 688.35 360.357 685.689 356.129 682.224C356.406 717.539 367.177 753.394 381.234 765.189V742.75C385.143 751.205 390.022 758.772 394.763 766.326C410.705 791.731 428.477 815.75 451.086 835.764C457.795 841.71 465.212 846.824 473.405 850.635C474.541 851.162 475.914 852.506 477.092 850.996C478.118 849.693 477.036 848.459 476.302 847.281C472.226 840.725 470.785 833.338 468.941 824.426H468.955Z" fill="#FC6100"/>
<path d="M348.906 995.859C348.809 1031.24 325.742 1060.64 290.227 1070.48C270.736 1075.87 251.163 1076.86 231.631 1070.76C217.949 1066.49 207.039 1058.31 199.304 1046.17C184.914 1023.61 196.961 994.307 223.008 988.444C225.018 987.987 227.112 987.793 229.163 987.779C237.841 987.723 240.406 991.479 237.328 999.587C230.702 1017.09 231.991 1024.96 243.081 1034.81C253.506 1044.06 267.978 1045.91 280.426 1039.55C293.166 1033.05 300.943 1018.74 299.889 1004.76C298.863 991.147 292.071 980.516 283.739 970.371C272.857 957.121 259.73 946.13 247.877 933.878C223.979 909.166 224.561 868.293 245.257 841.862C268.033 812.784 309.496 800.518 341.268 813.616C370.213 825.549 382.634 857.205 368.244 882.915C363.351 891.661 356.337 898.064 345.954 899.949C341.615 900.739 337.761 899.685 334.004 897.731C329.236 895.236 327.974 892.049 331.038 887.101C335.335 880.157 337.415 872.506 337.997 864.246C339.605 841.432 320.225 832.936 303.147 837.635C283.476 843.04 273.897 862.596 280.412 883.248C284.072 894.834 291.78 903.691 299.653 912.423C310.619 924.578 322.055 936.303 332.008 949.359C343.112 963.926 348.934 979.823 348.879 995.859H348.906Z" fill="#FC6100"/>
<path d="M910.222 997.023C905.481 997.023 898.55 995.124 896.526 997.467C893.532 1000.93 893.851 1007.38 893.061 1012.6C890.69 1028.29 888.292 1043.98 886.296 1059.73C885.672 1064.69 883.232 1067.18 878.727 1068.19C868.871 1070.4 859.056 1070.48 849.533 1066.75C841.562 1063.63 839.427 1059.59 840.938 1051.1C846.428 1020.32 852.153 989.594 857.407 958.784C862.134 931.133 866.708 903.469 872.447 875.999C873.265 872.104 874.624 869.374 878.699 867.309C891.522 860.795 900.214 850.164 905.287 836.817C906.577 833.421 908.476 831.841 911.609 831.647C937.309 830.04 961.915 833.768 982.889 849.831C1014.74 874.225 1020.03 921.57 995.282 955.735C977.025 980.932 951.352 992.574 921.229 995.984C917.569 996.4 913.882 996.524 910.208 996.788C910.208 996.871 910.208 996.94 910.208 997.023H910.222ZM965.367 908.306C965.783 882.361 945.363 864.357 919.371 867.433C915.143 867.932 914.284 869.942 913.799 873.56C912.329 884.744 910.527 895.874 908.836 907.031C906.382 923.178 903.846 939.325 901.572 955.499C901.267 957.634 899.188 961.237 904.317 961.473C939.389 963.053 965.298 940.142 965.367 908.32V908.306Z" fill="#FCF0CA"/>
<path d="M738.911 1111.28C686.58 1112.03 634.43 1115.14 582.432 1121.61C528.272 1128.36 474.735 1138.52 421.005 1147.74C404.273 1150.6 387.375 1154.07 370.227 1151.09C357.806 1148.94 347.465 1143.37 342.197 1131.23C338.122 1121.85 340.991 1115.71 350.709 1112.41C362.991 1108.23 375.938 1107.25 388.678 1105.56C423.153 1100.97 457.74 1097.38 492.424 1094.75C507.354 1093.61 522.297 1092.68 537.255 1091.88C601.299 1088.43 665.399 1087.22 729.498 1089.11C752.454 1089.79 775.466 1091.69 798.089 1096.5C802.359 1097.4 805.811 1098.57 805.353 1103.7C804.882 1109.07 801.444 1111.09 796.343 1111.1C782.965 1111.1 769.588 1111.23 756.211 1111.27C750.444 1111.3 744.678 1111.27 738.911 1111.27V1111.28Z" fill="#FC6100"/>
<path d="M379.237 378.097C381.331 404.597 382.065 431.208 386.002 457.583C387.25 465.941 385.864 474.645 386.377 483.155C387.888 508.075 388.234 533.147 394.431 557.568C397.175 568.407 402.055 578.192 408.667 587.173C432.511 619.55 457.532 651.095 478.035 685.8C487.738 702.224 497.387 718.606 509.946 733.201C521.687 746.853 535.785 756.333 552.614 762.389C583.292 773.422 611.266 766.936 636.69 748.585C651.314 738.024 660.602 722.681 667.409 705.938C677.556 680.935 682.228 654.296 690.628 628.753C696.589 610.624 706.154 595.447 719.323 581.643C734.336 565.898 749.322 549.599 753.785 526.98C754.631 522.711 755.296 518.414 756.045 514.118C760.093 534.575 756.239 553.854 747.214 572.301C742.238 582.474 736.083 591.996 729.027 600.797C712.226 621.753 701.164 645.662 692.001 670.609C684.154 691.995 676.697 713.589 664.359 732.951C649.457 756.333 629.717 774.073 601.992 779.922C564.231 787.878 532.666 774.877 506.037 748.239C495.709 737.913 487.309 725.966 479.795 713.561C462.8 685.523 440.481 662.571 414.836 642.502C402.443 632.8 391.353 621.726 382.079 608.933C370.255 592.634 362.88 574.588 363.975 554.297C364.571 543.14 367.565 532.094 369.7 521.047C375.536 490.708 374.704 460.106 374.095 429.434C373.748 412.22 374.635 394.936 379.224 378.124L379.237 378.097Z" fill="#FC6100"/>
<path d="M1055.43 1002.93C1051.52 1002.93 1047.6 1003.12 1043.7 1002.87C1039.35 1002.59 1038.14 1004.55 1038.2 1008.62C1038.39 1023.83 1050.16 1036.16 1066.13 1037.54C1080.33 1038.76 1093.01 1035.08 1103.92 1025.75C1104.27 1025.45 1104.61 1025.14 1104.99 1024.87C1109.13 1021.79 1113.25 1016.69 1118.78 1021.26C1124.19 1025.73 1120.54 1031.31 1118.21 1035.73C1107.87 1055.33 1090.82 1065.34 1069.4 1068.94C1042.37 1073.49 1013.86 1060.17 1002.95 1037.24C994.866 1020.25 994.769 1002.36 999.718 984.646C1009.57 949.373 1029.3 922.097 1064.66 908.486C1076.1 904.079 1087.97 903.206 1099.89 906.796C1128 915.264 1138.99 942.207 1124.08 967.529C1111.41 989.04 1091.92 1000.45 1067.19 1002.98C1063.29 1003.39 1059.37 1003.41 1055.46 1003.62C1055.46 1003.38 1055.46 1003.16 1055.46 1002.93H1055.43ZM1049.28 978.534C1063.39 977.495 1075.41 973.364 1085.46 964.577C1092.43 958.479 1097.31 951.064 1096.8 941.237C1096.46 934.903 1092.57 931.133 1086.26 930.732C1079.41 930.288 1073.72 933.005 1068.53 937.135C1056.96 946.352 1050.62 958.978 1045.21 972.339C1042.83 978.229 1044.16 979.934 1049.28 978.534Z" fill="#FCF0CA"/>
<path d="M1230.24 935.527C1226.01 936.151 1218.55 932.811 1214.64 936.719C1211.16 940.184 1211.33 947.377 1210 952.949C1205.35 972.394 1200.2 991.729 1197.04 1011.51C1195.66 1020.07 1194.48 1029.11 1202.76 1034.9C1211.3 1040.86 1219.52 1036.27 1227.3 1032.06C1229.69 1030.76 1231.73 1028.8 1233.88 1027.07C1237.97 1023.77 1240.9 1024.84 1241.82 1030.01C1242.34 1032.89 1241.28 1035.47 1240.23 1038.02C1230.75 1060.99 1200.53 1074.72 1176.75 1066.89C1158.28 1060.81 1148.13 1041.4 1151.32 1018.73C1154.95 992.865 1163.1 968.153 1170.56 943.289C1172.15 937.98 1171.63 936.594 1165.89 937.065C1159.73 937.564 1153.48 937.745 1147.28 936.608C1143.6 935.929 1142.04 934.612 1143.54 930.593C1145.38 925.645 1146.89 920.558 1148.17 915.43C1149.64 909.512 1153.44 907.447 1159.16 907.461C1165.84 907.475 1172.54 907.045 1179.22 907.087C1181.91 907.1 1183.26 906.588 1184.09 903.677C1185.76 897.717 1188.19 891.979 1190.1 886.089C1195 870.968 1207.04 864.426 1221.09 860.767C1227.6 859.062 1230.79 862.652 1229.32 869.277C1226.98 879.81 1224.36 890.288 1221.57 900.725C1220.39 905.16 1221.27 906.657 1226.13 906.366C1233.72 905.922 1241.3 906.407 1248.89 907.267C1255.05 907.974 1257.05 910.801 1255.8 916.387C1254.65 921.529 1252.96 926.56 1251.93 931.729C1251.26 935.111 1249.17 935.555 1246.45 935.541C1241.6 935.527 1236.76 935.541 1230.28 935.541L1230.24 935.527Z" fill="#FCF0CA"/>
<path d="M213.083 428.38C216.23 429.6 216.105 432.816 217.117 435.255C225.795 456.405 239.657 473.397 258.69 487.964C258.829 470.112 260.062 453.411 262.114 435.172C271.471 455.255 278.125 474.686 285.292 494.45C296.229 470.847 305.573 446.759 312.254 419.69C316.871 444.985 321.293 468.38 322.208 492.51C328.529 482.018 332.868 470.792 336.319 459.26C339.924 447.23 342.862 435.005 346.079 422.864C345.496 452.483 346.896 482.309 339.12 511.304C332.175 537.18 319.199 559.231 295.689 573.673C287.593 578.649 278.832 582.128 269.101 582.239C267.132 582.267 264.79 582.766 264.859 579.384C265.372 554.173 254.615 532.69 242.388 511.706C234.985 499.01 226.211 487.063 220.776 473.286C215.093 458.886 210.574 444.222 213.083 428.38Z" fill="#FC6100"/>
<path d="M710.063 293.884C699.708 290.572 690.614 284.626 681.035 279.747C633.792 255.659 583.777 250.794 531.793 255.964C497.886 259.331 465.683 267.453 435.657 283.711C434.035 284.584 432.372 285.402 430.819 286.386C424.706 290.253 420.09 294.924 411.218 288.77C402.263 282.547 390.757 285.915 380.457 289.213C367.87 293.247 357.349 300.8 347.811 309.504C319.934 334.951 289.478 356.628 256.32 374.701C242.055 382.476 229.787 392.955 220.984 407.022C217.685 412.289 215.024 417.764 213.291 423.71C214.303 395.214 230.106 375.699 252.577 360.841C265.399 352.359 279.428 345.734 292.431 337.501C313.571 324.099 331.177 306.386 349.281 289.31C356.475 282.519 363.864 275.825 373.415 272.36C389.01 266.705 404.273 269.089 419.175 274.993C422.751 276.407 425.247 276.809 428.504 274.259C464.741 246.068 507.464 238.334 551.699 236.352C576.846 235.229 601.812 237.835 626.362 243.878C659.41 252.013 685.652 271.417 710.063 293.912V293.884Z" fill="#FCF0CA"/>
<path d="M633.668 905.964C633.487 905.964 635.095 905.881 636.703 905.964C650.275 906.782 656.679 914.654 654.364 928.112C651.827 942.831 648.348 957.329 644.439 971.757C639.947 988.375 634.208 1004.66 630.951 1021.61C630.022 1026.42 628.677 1031.49 633.806 1034.71C639.199 1038.1 643.87 1035.33 648.403 1032.2C650.178 1030.97 651.398 1027.57 653.685 1028.73C656.139 1029.97 654.988 1033.34 655.002 1035.75C655.03 1042.82 650.607 1047.79 646.019 1052.27C636.052 1061.96 624.075 1066.17 610.088 1064.08C596.738 1062.08 588.823 1053.27 588.518 1039.7C588.157 1023.56 593.411 1008.47 597.334 993.143C602.297 973.794 608.41 954.737 611.363 934.903C612.153 929.581 611.599 925.174 607.717 920.919C602.962 915.721 603.877 912.894 610.407 910.094C617.241 907.17 624.338 905.368 633.668 905.95V905.964Z" fill="#FC6100"/>
<path d="M810.718 822.444C803.163 826.186 801.818 832.604 800.39 838.702C798.63 846.214 799.101 853.865 801.111 861.252C802.359 865.812 800.709 867.018 796.592 867.226C786.084 867.752 776.575 858.286 775.327 845.951C773.553 828.252 781.51 814.808 794.055 803.484C814.696 784.856 847.911 781.1 871.324 794.586C879.642 799.381 885.658 805.993 887.862 815.639C890.551 827.434 884.23 839.201 872.946 843.484C867.762 845.452 864.351 843.927 863.007 838.591C861.052 830.899 858.515 823.345 858.086 814.461C852.111 818.979 852.333 825.036 851.723 830.483C851.182 835.251 851.612 840.143 851.778 844.98C852.25 858.965 838.443 870.219 824.858 866.879C817.386 865.036 812.825 857.787 811.328 846.38C810.316 838.702 810.815 830.982 810.732 822.43L810.718 822.444Z" fill="#FCF0CA"/>
<path d="M1146.45 862.042C1137.07 868.293 1134.29 876.872 1131.85 885.715C1128.36 898.355 1121.39 902.374 1108.62 899.242C1098.11 896.678 1094.22 888.376 1097.05 874.322C1097.77 870.718 1098.83 867.184 1099.8 863.636C1100.14 862.402 1101.5 861.016 1099.71 860.088C1098.35 859.381 1097.06 860.365 1096.03 861.349C1089.98 867.184 1086.75 874.585 1085.66 882.679C1085.01 887.572 1083.2 887.128 1079.9 885.548C1073.44 882.471 1069.27 873.421 1071.47 865.507C1076.63 847.032 1089.56 835.874 1107.18 830.164C1129.61 822.888 1154.95 830.206 1168.71 847.143C1180.39 861.501 1176.91 880.434 1160.92 889.706C1158.29 891.231 1155.53 892.187 1152.51 892.603C1146.62 893.393 1143.61 891.702 1143.37 884.98C1143.12 877.579 1145.44 870.635 1146.44 862.07L1146.45 862.042Z" fill="#FCF0CA"/>
<path d="M1100.59 810.414C1084.13 804.731 1069.06 796.318 1053.12 786.935C1069.03 781.641 1083.45 775.931 1097.23 768.737C1122.83 755.349 1142.86 735.834 1159.33 712.383C1160.8 710.29 1161.99 708.059 1161.71 705.356C1169.89 708.544 1177.2 713.381 1184.89 717.497C1188.36 719.355 1188.16 721.032 1186.32 723.914C1178.31 736.513 1168.37 747.282 1156.46 756.263C1143.36 766.146 1129.28 774.406 1114.47 781.461C1112.81 782.251 1111.2 783.138 1109.59 784.039C1107.96 784.967 1106.18 786.104 1106.65 788.224C1107.12 790.373 1109.44 790.594 1111.14 790.761C1120.6 791.745 1130.02 791.412 1139.33 789.291C1146.48 787.665 1151.51 790.146 1154.41 796.734C1156.5 801.557 1158.46 806.45 1161.24 813.186C1140.45 804.274 1120.57 805.355 1100.62 810.428L1100.59 810.414Z" fill="#FC6100"/>
<path d="M1192.03 419.676C1194.17 436.28 1195.75 452.968 1194.82 469.683C1193.79 488.158 1192.63 506.647 1189.23 524.887C1188.83 527.063 1188.4 529.433 1186.57 531.096C1179.19 521.144 1172.08 510.971 1164.36 501.311C1154.56 489.045 1143.26 478.193 1130.54 468.948C1127.63 466.828 1127.4 465.358 1129.34 462.434C1141.17 444.707 1154.51 428.394 1172.19 416.128C1180.39 410.446 1181.77 410.764 1187.07 419.164C1187.91 420.494 1188.61 421.922 1189.62 423.765C1190.59 422.116 1191.3 420.896 1192.02 419.662L1192.03 419.676Z" fill="#FC6100"/>
<path d="M1026.11 446.329C1021.8 445.594 1020.03 448.297 1018.5 451.679C1009.21 472.413 1001.45 493.744 993.23 514.908C990.832 521.089 988.711 527.395 984.774 533.923C979.257 526.896 976.734 519.246 974.807 511.359C969.955 491.484 969.623 471.595 974.488 451.651C975.126 449.032 974.668 446.163 974.71 443.404C988.6 440.965 1002.39 443.058 1016.17 444.499C1019.47 444.846 1023.08 444.347 1026.13 446.357L1026.11 446.329Z" fill="#FC6100"/>
<path d="M762.616 801.419C757.833 777.247 753.466 754.919 748.947 732.605C748.351 729.639 748.961 727.906 751.803 726.631C757.473 724.081 763.073 721.35 768.59 718.481C770.878 717.289 772.333 717.303 773.539 719.784C782.647 738.356 795.58 753.727 812.257 765.965C812.562 766.187 812.589 766.769 812.978 767.781C793.196 773.422 776.492 783.942 762.602 801.419H762.616Z" fill="#009AC3"/>
<path d="M857.185 352.262C835.712 351.389 817.414 341.964 799.781 330.821C779.14 317.765 760.481 302.006 740.852 287.564C731.495 280.676 721.195 276.504 709.218 280.163C705.53 274.397 701.344 269.006 696.506 263.683C711.81 257.738 725.769 258.68 739.244 268.022C750.638 275.922 760.98 285.055 771.515 293.967C795.123 313.953 820.214 331.722 847.772 345.9C851.099 347.605 855.008 348.742 857.171 352.276L857.185 352.262Z" fill="#FCF0CA"/>
<path d="M812.756 518.317C810.302 493.342 811.508 468.435 814.198 443.557C818.134 442.254 818.647 438.055 820.962 435.366C823.485 432.441 825.565 431.443 829.086 433.716C841.631 441.838 851.39 452.704 860.248 464.541C861.759 466.564 861.246 467.729 859.514 469.045C841.201 482.864 826.535 500.161 812.77 518.303L812.756 518.317Z" fill="#FC6100"/>
<path d="M1171.38 647.061C1167.81 641.822 1162.68 638.274 1157.79 634.49C1152.97 630.776 1147.17 628.323 1142.24 622.613C1153.87 622.349 1164.2 620.936 1174.18 617.9C1185.02 614.602 1186.06 613.119 1183.78 602.419C1177.23 571.594 1166.5 542.447 1147.99 516.598C1146.83 514.977 1146.27 513.397 1146.49 511.484C1164.71 531.331 1178 554.228 1188.05 579.093C1196.36 599.619 1201.42 620.991 1204.27 642.903C1205.35 651.164 1205.38 651.067 1197.38 650.055C1188.73 648.946 1180.05 648.059 1171.39 647.075L1171.38 647.061Z" fill="#FC6100"/>
<path d="M667.603 865.285C667.326 880.392 655.321 892.852 641.375 892.492C628.802 892.159 620.124 882.901 620.304 869.984C620.498 855.763 632.919 843.733 647.225 843.927C659.327 844.107 667.838 853.005 667.617 865.285H667.603Z" fill="#FC6100"/>
<path d="M965.214 444.167C960.279 460.882 953.265 476.931 949.37 494.007C947.304 503.085 946.805 512.385 944.878 523.085C929.436 501.616 923.017 478.719 921.936 454.007C935.882 448.643 950.437 445.885 965.214 444.167Z" fill="#FC6100"/>
<path d="M1071.77 459.08C1056.43 478.276 1043.23 499.024 1028.66 518.955C1026.25 517.971 1026.17 515.836 1026.01 513.882C1024.37 493.064 1029.33 473.3 1035.68 453.758C1036.41 451.485 1038.64 450.972 1039.72 449.24C1050.98 450.667 1061.34 455.019 1071.77 459.094V459.08Z" fill="#FC6100"/>
<path d="M805.894 698.676C816.041 729.001 838.069 748.197 865.585 762.14C882.983 770.955 900.976 778.661 916.391 790.996C919.649 793.602 922.532 796.471 925.443 799.617C922.338 803.595 916.932 800.643 913.716 803.761C906.285 787.781 892.894 778.675 877.354 771.897C859.278 764.011 840.966 756.651 825.357 744.025C813.712 734.6 805.007 723 797.355 710.304C794.416 705.425 795.511 703.097 800.335 701.309C802.248 700.602 804.036 699.563 805.88 698.676H805.894Z" fill="#FC6100"/>
<path d="M770.642 582.239C775.216 587.589 776.658 592.606 774.066 599.425C768.16 614.948 763.905 630.998 762.823 647.685C762.643 650.513 761.534 651.843 759.067 652.619C756.211 653.52 753.369 654.49 750.583 655.571C741.309 659.189 741.642 659.23 742.196 648.946C742.792 637.914 745.579 627.99 751.969 618.704C759.663 607.533 764.362 594.643 770.642 582.225V582.239Z" fill="#009AC3"/>
<path d="M1198.84 374.743C1192.67 372.47 1186.61 373.412 1180.72 375.657C1164.32 381.894 1150.91 392.871 1137.19 403.336C1119.78 416.599 1102.49 430.002 1088.01 446.578C1086.3 448.533 1084.71 448.865 1082.74 447.147C1109.49 417.043 1138.37 389.448 1173.93 369.698C1175.92 368.589 1178.04 367.66 1180.16 366.773C1192.72 361.576 1193.36 361.853 1198.85 374.729L1198.84 374.743Z" fill="#FCF0CA"/>
<path d="M793.224 608.198C794.707 612.8 798.796 612.315 802.248 612.495C807.724 612.786 813.227 612.689 818.717 612.592C822.709 612.523 824.054 612.869 821.669 617.443C817.386 625.676 811.883 633.437 810.039 642.806C802.983 643.569 795.871 643.957 788.913 645.246C784.671 646.036 784.615 644.04 785.142 641.31C787.291 630.139 788.913 618.829 793.21 608.185L793.224 608.198Z" fill="#FC6100"/>
<path d="M1171.21 691.621C1175.4 683.402 1175.59 674.338 1176.82 665.481C1184.7 666.909 1192.59 668.281 1200.45 669.778C1203.13 670.291 1204.98 671.399 1204.27 674.892C1202.64 682.959 1201.4 691.122 1198.59 698.911C1197.4 702.224 1196.09 703.845 1192.17 701.725C1185.35 698.038 1178.21 694.947 1171.21 691.607V691.621Z" fill="#FC6100"/>
<path d="M751.886 356.392C760.467 361.95 764.224 371.264 769.408 379.4C772.721 384.583 775.009 390.418 777.85 395.907C778.849 397.847 779.154 400.467 782.051 400.841C777.573 415.006 773.622 429.295 769.949 443.945C767.163 414.035 761.479 384.791 751.886 356.378V356.392Z" fill="#FC6100"/>
<path d="M901.475 446.426C893.158 440.397 884.743 434.493 876.551 428.297C862.203 417.431 847.495 407.161 831.664 398.54C826.175 395.546 820.865 392.303 814.198 393.121C812.673 393.315 812.354 392.165 812.492 390.862C817.719 381.395 819.438 380.73 829.016 385.817C849.505 396.697 866.736 411.901 883.468 427.646C889.775 433.578 896.54 439.149 901.489 446.426H901.475Z" fill="#FCF0CA"/>
<path d="M746.494 716.347C744.04 702.806 742.39 690.069 741.864 677.151C741.711 673.34 742.931 671.704 746.521 671.164C751.068 670.485 756.281 667.782 759.912 669.21C763.974 670.817 760.509 677.026 761.964 680.99C762.435 682.266 762.255 683.79 762.768 685.037C767.856 697.761 763.849 706.687 751.65 712.397C750.042 713.145 748.767 714.573 746.508 716.333L746.494 716.347Z" fill="#009AC3"/>
<path d="M1194.98 546.037C1203.36 537.374 1205.39 525.788 1208.5 514.949C1214.53 493.896 1215.89 472.164 1215.83 450.334C1218.84 466.606 1216.66 482.905 1215.37 499.066C1213.71 519.856 1209.59 540.327 1202.41 561.477C1199.63 555.683 1197.31 550.846 1194.98 546.023V546.037Z" fill="#FC6100"/>
<path d="M800.363 659.868C799.947 667.907 799.531 675.945 799.115 683.97C791.269 687.103 786.699 684.497 785.405 676.153C784.075 667.56 787.711 662.284 796.315 660.325C797.632 660.02 799.018 660.007 800.363 659.854V659.868Z" fill="#FC6100"/>
<path d="M703.368 786.935C704.102 777.192 706.168 767.753 709.758 756.929C714.624 766.589 716.634 775.598 719.892 784.122C714.388 785.064 708.885 785.993 703.382 786.935H703.368Z" fill="#FD9500"/>
<path d="M859.86 353.495C858.751 353.44 857.642 353.371 857.046 352.179C858.363 351.805 859.25 352.359 859.86 353.495Z" fill="#FCF0CA"/>
<path d="M903.984 449.045C903.222 448.948 902.667 448.644 902.778 447.743C903.638 447.756 904.054 448.186 903.984 449.045Z" fill="#FCF0CA"/>
<path d="M902.861 447.826C901.863 447.826 901.323 447.396 901.406 446.343C902.39 446.343 902.792 446.925 902.861 447.826Z" fill="#FCF0CA"/>
<path d="M1144.22 508.726C1143.17 508.518 1142.57 507.867 1142.35 506.841C1142.97 507.465 1143.6 508.102 1144.22 508.726Z" fill="#FC6100"/>
<path d="M708.636 533.632C709.786 526.453 706.612 520.673 702.702 515.115C700.554 512.052 699.278 509.211 704.851 508.629C714.499 507.617 723.524 508.74 729.332 517.652C735.584 527.229 736.041 537.804 731.8 548.06C729.457 553.729 727.766 545.912 724.799 546.868C721.139 566.73 711.713 584.082 698.558 599.508C680.051 621.227 670.653 647.422 661.878 673.908C658.551 683.943 654.96 693.866 651.287 703.776C633.113 752.785 568.14 762.473 531.89 724.705C520.066 712.383 511.457 698.024 504.276 682.778C487.794 647.796 467.846 615.128 442.117 586.064C431.166 573.701 425.843 558.455 422.35 542.544C421.92 540.576 421.948 538.497 420.076 536.765C418.704 537.998 417.47 539.398 415.959 540.354C413.949 541.629 412.604 545.081 409.915 543.902C407.489 542.849 407.836 539.426 407.392 537.056C405.618 527.52 408.945 519.606 416.694 514.076C424.886 508.227 434.063 505.33 444.016 509.391C449.423 511.595 449.769 516.127 445.25 520.091C443.185 521.907 441.064 523.667 438.971 525.455C435.99 527.312 438.125 529.502 438.679 531.484C451.017 575.6 497.636 608.628 543.313 605.648C561.417 604.47 577.705 592.689 583.292 577.222C584.609 573.59 583.943 572.495 580.353 571.664C572.77 569.904 565.299 567.7 557.785 565.676C542.564 558.525 530.074 548.407 522.88 532.801C510.32 505.566 520.398 477.361 548.456 467.091C577.636 456.391 607.537 455.185 635.789 471.194C663.735 487.035 665.135 519.883 652.327 541.602C646.477 551.511 638.256 559.093 628.525 565.108C621.524 568.032 614.51 571.012 606.983 572.149C603.711 572.648 603.586 574.228 603.656 576.764C604.03 589.543 611.737 600.229 623.715 603.611C633.848 606.466 644.12 606.757 654.35 603.652C679.94 595.905 706.861 561.227 708.663 533.618L708.636 533.632ZM592.774 683.582C588.088 677.803 586.425 672.259 584.068 667.061C576.943 651.316 566.657 638.884 549.066 634.38C537.019 631.289 526.359 634.061 517.002 642.266C513.564 645.287 512.926 648.35 514.729 652.647C519.719 664.525 524.945 676.292 531.488 687.394C536.881 696.555 543.493 704.816 551.81 711.607C577.983 732.965 613.72 727.518 630.632 699.216C637.951 686.978 641.736 673.603 641.264 659.106C640.918 648.517 636.121 641.531 625.794 639.369C614.759 637.041 604.293 638.746 595.089 645.87C592.081 648.198 590.833 650.374 592.067 654.601C594.687 663.666 595.13 673.035 592.788 683.582H592.774ZM637.993 501.81C635.678 489.572 614.704 478.47 592.094 478.428C567.711 478.373 545.572 486.287 541.94 500.327C583.195 486.273 607.038 486.578 637.993 501.81ZM558.298 538.802C563.552 542.932 568.334 542.364 572.937 538.899C576.499 536.224 577.012 533.521 575.307 529.308C571.467 538.497 570.83 538.857 558.298 538.802Z" fill="#021A2F"/>
<path d="M428.366 456.807C431.623 452.857 435.131 453.605 438.014 452.607C427.16 428.491 432.206 407.161 451.724 394.257C466.848 384.264 486.089 386.357 498.107 399.94C508.033 411.153 512.704 424.403 509.849 439.468C506.508 457.098 495.377 467.202 477.328 468.879C459.917 470.501 444.848 462.725 428.366 456.793V456.807ZM493.006 416.891C493.242 409.628 486.893 402.698 479.934 402.629C474.527 402.573 469.994 407.868 469.745 414.534C469.509 420.965 475.955 428.062 482.096 428.103C487.835 428.145 492.812 423.03 493.006 416.904V416.891Z" fill="#021A2F"/>
<path d="M557.771 565.676C565.285 567.7 572.77 569.904 580.339 571.664C583.943 572.495 584.595 573.59 583.278 577.222C577.691 592.689 561.403 604.47 543.299 605.648C497.622 608.628 451.003 575.6 438.666 531.484C438.111 529.502 435.976 527.312 438.957 525.455C452.667 546.453 468.941 564.831 491.343 576.986C509.045 586.591 527.607 591.109 547.624 585.801C553.474 584.249 558.284 580.52 563.219 577.222C567.114 574.616 567.503 571.719 562.457 570.001C560.1 569.197 558.173 568.379 557.757 565.676H557.771Z" fill="#FC6100"/>
<path d="M708.635 533.632C706.833 561.241 679.912 595.918 654.322 603.666C644.092 606.757 633.82 606.48 623.687 603.625C611.71 600.243 604.016 589.557 603.628 576.778C603.558 574.242 603.683 572.648 606.955 572.163C614.482 571.026 621.51 568.046 628.497 565.122C628.497 568.919 625.641 570.596 623.049 572.509C620.692 574.255 617.393 575.752 617.823 579.148C618.253 582.599 622.051 583.057 624.643 584.221C643.26 592.578 659.646 588.49 674.77 575.558C686.788 565.288 695.729 552.703 703.881 539.412C705.211 537.236 706.362 535.018 708.621 533.646L708.635 533.632Z" fill="#FC6100"/>
<path d="M710.659 446.467C697.046 439.759 685.624 430.168 670.32 429.725C654.725 429.267 643.732 439.842 629.98 446.551C630.854 430.681 636.371 418.526 648.972 410.155C661.295 401.963 674.076 401.686 686.608 409.337C700.165 417.611 709.273 429.087 710.673 446.467H710.659Z" fill="#021A2F"/>
<path d="M429.71 369.448C428.283 340.717 454.344 317.82 480.655 323.239C489.942 325.152 497.068 330.197 501.476 338.735C502.654 341.008 503.805 343.724 502.1 345.859C500.561 347.785 497.747 346.954 495.557 346.538C477.744 343.073 461.358 347.356 445.721 355.588C439.775 358.721 435.2 363.613 429.724 369.448H429.71Z" fill="#021A2F"/>
<path d="M703.964 371.86C699.68 368.409 695.619 365.152 691.571 361.881C677.154 350.211 660.949 346.829 643.025 351.361C641.916 351.638 640.821 352.04 639.698 352.22C634.07 353.094 632.933 351.721 634.874 346.441C640.46 331.237 657.982 322.699 673.688 327.162C692.985 332.636 707.305 357.307 703.964 371.846V371.86Z" fill="#021A2F"/>
<path d="M981.392 783.47C935.064 780.892 897.801 762.237 874.901 720.505C859.819 693.021 867.956 666.382 894.447 649.376C906.729 641.504 920.813 637.263 933.275 629.764C936.228 627.99 939.458 626.549 942.133 624.428C958.519 611.4 976.54 610.555 995.753 616.556C1007.77 620.312 1018.63 626.355 1029.2 632.883C1039.06 638.953 1049.43 643.86 1059.94 648.586C1072.62 654.282 1083.7 662.016 1090.57 674.449C1098.58 688.932 1097.28 703.721 1090.72 718.315C1078.28 746.021 1056.32 763.374 1028.76 774.281C1021.3 777.233 1013.44 779.312 1005.61 781.17C997.749 783.027 989.668 783.623 981.392 783.47ZM976.942 702.75C980.366 708.364 984.635 712.48 989.972 715.446C1007.13 725.009 1024.61 725.231 1041.94 716.333C1052.91 710.692 1060.45 701.947 1061.61 689.043C1061.97 685.024 1061.57 680.755 1056.75 679.549C1052.46 678.482 1048.74 679.48 1046.32 683.984C1042.91 690.36 1037.85 695.432 1032.06 699.743C1017.13 710.845 995.212 705.134 987.685 688.184C984.857 681.822 986.368 677.9 992.731 674.878C997.763 672.48 1002.28 669.348 1006.07 665.218C1015.19 655.253 1012.91 642.696 1000.19 638.094C983.637 632.121 967.044 633.312 951.671 642.363C943.464 647.186 942.438 655.336 948.261 662.986C952.572 668.655 958.325 672.425 964.882 674.864C967.89 675.973 968.43 677.512 968.111 680.547C966.822 692.813 954.596 702.501 942.036 700.491C928.853 698.385 919.371 690.692 913.078 679.244C910.458 674.49 906.66 674.379 902.529 675.1C898.411 675.807 898.425 679.438 898.273 682.737C897.649 695.377 904.844 703.36 914.617 709.556C931.168 720.034 957.188 720.838 976.956 702.764L976.942 702.75Z" fill="#FCF0CA"/>
<path d="M1078.48 589.307C1100.03 589.238 1120.68 605.288 1124.47 625.08C1124.8 626.812 1126.05 629.016 1124.33 630.236C1122.46 631.552 1121.01 629.279 1119.64 628.337C1105.49 618.482 1090.38 612.065 1072.58 613.839C1062.69 614.823 1053.99 618.718 1045.52 623.472C1042.51 625.163 1039.57 626.978 1036.54 628.614C1034.79 629.543 1032.82 631.691 1030.99 630.139C1029.26 628.669 1030.76 626.258 1031.31 624.317C1037.09 604.082 1056.9 589.404 1078.47 589.335L1078.48 589.307Z" fill="#021A2F"/>
<path d="M843.877 625.094C842.394 620.963 844.307 617.623 845.638 614.311C852.541 597.097 871.907 585.732 890.649 587.741C909.003 589.709 927.55 606.812 930.24 624.29C930.475 625.856 931.071 627.879 929.741 628.863C928.341 629.889 926.719 628.559 925.319 627.769C919.302 624.387 913.286 621.033 907.27 617.665C891.577 608.891 875.858 608.559 859.944 617.207C854.759 620.021 849.879 623.541 843.905 625.107L843.877 625.094Z" fill="#021A2F"/>
<path d="M1116.4 566.064C1092.08 548.67 1068.39 543.514 1043.86 561.56C1042.05 552.412 1047.49 542.53 1057.62 535.739C1070.67 526.993 1084.31 527.354 1097.31 535.295C1107.71 541.643 1115.3 550.514 1116.4 566.064Z" fill="#021A2F"/>
<path d="M928.645 561.615C924.085 559.439 919.857 557.748 915.947 555.489C902.071 547.464 888.112 547.16 873.917 554.533C871.269 555.905 868.649 557.36 865.89 558.455C863.672 559.342 861.385 562.544 859.25 560.659C856.991 558.663 858.89 555.434 859.929 552.953C866.112 538.234 884.521 527.686 900.907 529.377C913.203 530.639 925.679 543.306 928.618 557.554C928.839 558.608 928.645 559.744 928.645 561.615Z" fill="#021A2F"/>
<path d="M421.213 931.272C420.936 931.896 421.102 933.24 420.062 932.769C419.397 932.464 419.66 931.217 420.409 930.551C420.672 930.787 420.936 931.036 421.213 931.272Z" fill="#021A2F"/>
<path d="M765.776 978.534C770.545 961.112 776.201 945.229 789.786 933.545C792.087 931.563 794.582 929.955 797.438 928.985C806.975 925.728 813.463 930.579 813.172 940.558C812.894 950.163 808.403 957.703 801.735 964.12C792.018 973.448 780.11 977.509 765.776 978.534Z" fill="#021A2F"/>
<path d="M468.955 824.426C470.799 833.338 472.24 840.725 476.316 847.281C477.051 848.459 478.132 849.693 477.106 850.996C475.928 852.506 474.555 851.162 473.419 850.635C465.226 846.824 457.81 841.696 451.1 835.764C428.491 815.764 410.719 791.745 394.777 766.326C390.036 758.772 385.143 751.205 381.248 742.75V765.189C367.191 753.381 356.42 717.525 356.143 682.224C360.371 685.689 364.599 688.35 367.815 691.912C382.121 707.74 399.865 719.452 416.278 732.743C432.067 745.536 446.11 760.144 459.224 775.515C479.823 799.659 502.003 821.834 530.116 837.108C547.471 846.547 566.477 850.885 586.425 852.257C570.996 873.712 499.729 857.08 468.969 824.426H468.955Z" fill="#FD9500"/>
<path d="M965.367 908.306C965.298 940.142 939.375 963.039 904.317 961.459C899.188 961.223 901.281 957.62 901.572 955.485C903.846 939.311 906.396 923.164 908.836 907.017C910.527 895.86 912.329 884.731 913.799 873.546C914.27 869.928 915.143 867.919 919.371 867.42C945.363 864.343 965.783 882.347 965.367 908.292V908.306Z" fill="#021A2F"/>
<path d="M1049.28 978.534C1044.16 979.934 1042.83 978.229 1045.21 972.339C1050.61 958.978 1056.94 946.352 1068.53 937.135C1073.72 933.005 1079.41 930.288 1086.26 930.732C1092.57 931.133 1096.46 934.903 1096.8 941.237C1097.31 951.064 1092.43 958.465 1085.46 964.577C1075.41 973.364 1063.37 977.495 1049.28 978.534Z" fill="#021A2F"/>
<path d="M592.774 683.582C595.116 673.035 594.673 663.679 592.053 654.601C590.833 650.36 592.067 648.198 595.075 645.87C604.293 638.746 614.745 637.041 625.78 639.369C636.107 641.545 640.904 648.517 641.25 659.106C641.722 673.603 637.923 686.978 630.618 699.216C613.706 727.518 577.969 732.965 551.796 711.607C543.465 704.816 536.867 696.555 531.474 687.394C524.931 676.292 519.705 664.525 514.715 652.647C512.912 648.364 513.55 645.287 516.988 642.266C526.345 634.061 536.991 631.289 549.052 634.38C566.643 638.884 576.929 651.316 584.054 667.061C586.411 672.259 588.074 677.803 592.76 683.582H592.774Z" fill="#FC6100"/>
<path d="M638.007 501.81C607.052 486.564 583.209 486.273 541.954 500.327C545.6 486.287 567.724 478.373 592.108 478.428C614.704 478.484 635.692 489.572 638.007 501.81Z" fill="#FEFEFE"/>
<path d="M558.298 538.802C570.829 538.871 571.467 538.497 575.307 529.308C577.012 533.521 576.499 536.224 572.937 538.899C568.32 542.364 563.538 542.918 558.298 538.802Z" fill="#009AC3"/>
<path d="M493.006 416.891C492.812 423.017 487.822 428.131 482.096 428.089C475.969 428.048 469.509 420.951 469.745 414.52C469.995 407.868 474.528 402.559 479.934 402.615C486.893 402.698 493.242 409.614 493.006 416.877V416.891Z" fill="#FEFEFE"/>
<path d="M976.942 702.75C957.174 720.824 931.155 720.034 914.603 709.542C904.83 703.346 897.635 695.363 898.259 682.723C898.425 679.438 898.398 675.807 902.515 675.086C906.632 674.379 910.444 674.476 913.064 679.23C919.358 690.678 928.84 698.371 942.023 700.477C954.582 702.487 966.822 692.799 968.098 680.533C968.417 677.484 967.876 675.959 964.868 674.85C958.297 672.411 952.544 668.641 948.247 662.973C942.425 655.308 943.451 647.172 951.657 642.349C967.03 633.299 983.624 632.121 1000.18 638.08C1012.9 642.668 1015.16 655.239 1006.05 665.204C1002.27 669.334 997.749 672.467 992.717 674.864C986.355 677.9 984.844 681.808 987.671 688.17C995.213 705.12 1017.13 710.831 1032.04 699.729C1037.84 695.419 1042.89 690.36 1046.31 683.97C1048.72 679.466 1052.46 678.468 1056.73 679.535C1061.56 680.741 1061.96 685.01 1061.6 689.029C1060.44 701.947 1052.89 710.692 1041.93 716.319C1024.61 725.217 1007.12 724.996 989.959 715.432C984.622 712.466 980.352 708.336 976.928 702.737L976.942 702.75ZM976.152 663.721C987.353 663.721 994.838 658.51 997.444 650.554C998.512 647.283 997.93 646.105 994.533 645.509C984.511 643.749 974.599 643.888 964.563 645.675C958.81 646.701 958.56 649.806 960.363 653.964C963.634 661.573 970.357 663.388 976.166 663.721H976.152Z" fill="#021A2F"/>
<path d="M976.152 663.721C970.343 663.388 963.634 661.573 960.349 653.964C958.547 649.792 958.796 646.687 964.549 645.675C974.585 643.901 984.497 643.763 994.519 645.509C997.93 646.105 998.512 647.297 997.431 650.554C994.824 658.51 987.339 663.721 976.138 663.721H976.152Z" fill="#FC6100"/>
</g>
<defs>
<clipPath id="clip0_22_2">
<rect width="1126" height="1035" fill="white" transform="translate(162 212)"/>
</clipPath>
</defs>
</svg>
